Coordinates
version=1
nRows=12
nColumns=28
inDegrees=yes

Units are S.I. units (second, meters, Newtons, ...)
Angles are in degrees.

endheader
time	pelvis_tilt	pelvis_list	pelvis_rotation	pelvis_tx	pelvis_ty	pelvis_tz	hip_flexion_r	hip_adduction_r	hip_rotation_r	knee_angle_r	ankle_angle_r	subtalar_angle_r	mtp_angle_r	hip_flexion_l	hip_adduction_l	hip_rotation_l	knee_angle_l	socket_flexion	socket_adduction	socket_rotation	socket_tx	socket_ty	socket_tz	foot_flex	lumbar_extension	lumbar_bending	lumbar_rotation
      0.93750000	      6.07743394	     -0.11371473	     -2.06107674	      0.42184254	      1.04266036	      0.29418563	     -1.33212811	      2.38055357	     -7.11877388	    -17.33586781	     12.49888544	     -0.76667944	      8.99191432	      4.20355343	     -0.19413568	      0.09391052	    -54.96402480	      0.00000000	      0.00000000	      0.00000000	      0.00000000	      0.00759085	      0.00000000	      0.92445191	    -13.44786019	      0.50640246	      3.43468127
      0.94166667	      6.02944262	      0.18389251	     -2.26568439	      0.42691877	      1.04351083	      0.29476256	     -1.90299743	      2.07747303	     -6.95456044	    -16.67537650	     12.38806386	     -0.38368052	      9.02661350	      4.78172174	      0.15764346	      0.13172094	    -54.51367866	      0.00000000	      0.00000000	      0.00000000	      0.00000000	      0.00811313	      0.00000000	      0.89709818	    -13.31377031	      0.06059779	      3.72729775
      0.94583333	      6.04825160	      0.20113683	     -2.48551136	      0.43111818	      1.04415327	      0.29513057	     -2.20042696	      2.01692935	     -7.00972786	    -16.63904092	     12.38182461	     -0.34264865	      9.03139598	      5.34633397	      0.20284571	      0.15656583	    -54.14252569	      0.00000000	      0.00000000	      0.00000000	      0.00000000	      0.00810463	      0.00000000	      0.92828288	    -13.45742507	      0.04115238	      3.77345727
      0.95000000	      5.98332642	      0.46071185	     -2.69432221	      0.43619918	      1.04486955	      0.29569691	     -2.73532878	      1.75110807	     -6.86029382	    -16.00238557	     12.28917405	      0.01082293	      9.06511969	      5.88500440	      0.51496351	      0.22676304	    -53.57592316	      0.00000000	      0.00000000	      0.00000000	      0.00000000	      0.00840283	      0.00000000	      0.90063850	    -13.30906566	     -0.35829281	      4.05898201
      0.95416667	      6.00391031	      0.47222947	     -2.90386970	      0.44029926	      1.04544106	      0.29603255	     -3.02398502	      1.69077222	     -6.90508402	    -15.97814895	     12.27718757	      0.05521586	      9.07045011	      6.45698665	      0.54962903	      0.26487512	    -53.16835710	      0.00000000	      0.00000000	      0.00000000	      0.00000000	      0.00857046	      0.00000000	      0.93070109	    -13.46360127	     -0.37232328	      4.11136220
      0.95833333	      5.93471669	      0.71245442	     -3.12446969	      0.44538700	      1.04604097	      0.29655116	     -3.54052719	      1.43397931	     -6.73503777	    -15.36725519	     12.11475738	      0.48443066	      9.13725532	      6.94754104	      0.83955516	      0.33453988	    -52.48379807	      0.00000000	      0.00000000	      0.00000000	      0.00000000	      0.00871866	      0.00000000	      0.85366690	    -13.31480089	     -0.75190673	      4.54855902
      0.96250000	      5.95396146	      0.70795284	     -3.33817261	      0.44939536	      1.04650554	      0.29691818	     -3.81049381	      1.38996619	     -6.78687095	    -15.35874220	     12.11549485	      0.51362580	      9.14435399	      7.51985232	      0.85175646	      0.38958916	    -52.04713208	      0.00000000	      0.00000000	      0.00000000	      0.00000000	      0.00894585	      0.00000000	      0.89976727	    -13.48267245	     -0.76721727	      4.58703655
      0.96666667	      5.86630208	      0.88517598	     -3.53406536	      0.45451120	      1.04694954	      0.29735405	     -4.29060579	      1.19456277	     -6.63959357	    -14.79291253	     12.04622573	      0.83463515	      9.20469174	      7.97176709	      1.07783296	      0.52776724	    -51.25278167	      0.00000000	      0.00000000	      0.00000000	      0.00000000	      0.00886313	      0.00000000	      0.85224042	    -13.29738301	     -1.04317774	      4.89517055
      0.97083333	      5.88502732	      0.87621497	     -3.73284042	      0.45837009	      1.04733070	      0.29774530	     -4.54235281	      1.15927729	     -6.69102674	    -14.79190506	     12.04419921	      0.85869385	      9.20966266	      8.55723276	      1.06922547	      0.58564320	    -50.79450048	      0.00000000	      0.00000000	      0.00000000	      0.00000000	      0.00922225	      0.00000000	      0.89675420	    -13.49029791	     -1.05729689	      4.92651066
      0.97500000	      5.76490057	      1.02001347	     -3.91446120	      0.46359889	      1.04761335	      0.29811016	     -5.00584058	      1.00133641	     -6.52531101	    -14.21134438	     11.96777462	      1.16847165	      9.26554309	      8.96729501	      1.27036163	      0.80081329	    -49.87256937	      0.00000000	      0.00000000	      0.00000000	      0.00000000	      0.00890173	      0.00000000	      0.83646488	    -13.25464604	     -1.28516460	      5.22368113
      0.97916667	      5.72368057	      1.06143177	     -4.10304967	      0.46808498	      1.04788995	      0.29847733	     -5.37110339	      0.93140500	     -6.44743252	    -13.91620609	     11.88180140	      1.35623748	      9.31745755	      9.44398479	      1.33503052	      0.94599524	    -49.14393254	      0.00000000	      0.00000000	      0.00000000	      0.00000000	      0.00892242	      0.00000000	      0.81531545	    -13.25443368	     -1.38283981	      5.45258658
      0.98333333	      5.73671661	      1.04877330	     -4.27797265	      0.47191792	      1.04814304	      0.29885792	     -5.63228786	      0.90584547	     -6.49188090	    -13.88552402	     11.88162206	      1.37875874	      9.32702303	     10.03280251	      1.30705524	      1.00905513	    -48.64128324	      0.00000000	      0.00000000	      0.00000000	      0.00000000	      0.00948908	      0.00000000	      0.86253753	    -13.44613748	     -1.40366657	      5.48593481
